<svg xmlns="http://www.w3.org/2000/svg" width="1600" height="420" viewBox="0 0 1600 420" role="img" aria-labelledby="title desc">
  <title id="title">VULNERA-MAP Enterprise Banner</title>
  <desc id="desc">Dark cybersecurity banner with gradient accents and platform title.</desc>
  <defs>
    <linearGradient id="bg" x1="0" y1="0" x2="1" y2="1">
      <stop offset="0%" stop-color="#07111f"/>
      <stop offset="55%" stop-color="#0f1b2e"/>
      <stop offset="100%" stop-color="#1d2b4f"/>
    </linearGradient>
    <linearGradient id="accent" x1="0" y1="0" x2="1" y2="0">
      <stop offset="0%" stop-color="#06b6d4"/>
      <stop offset="50%" stop-color="#14b8a6"/>
      <stop offset="100%" stop-color="#8b5cf6"/>
    </linearGradient>
    <filter id="glow" x="-20%" y="-20%" width="140%" height="140%">
      <feGaussianBlur stdDeviation="18" result="blur"/>
      <feColorMatrix in="blur" type="matrix" values="1 0 0 0 0  0 1 0 0 0  0 0 1 0 0  0 0 0 0.7 0"/>
    </filter>
    <pattern id="grid" width="48" height="48" patternUnits="userSpaceOnUse">
      <path d="M 48 0 L 0 0 0 48" fill="none" stroke="#ffffff" stroke-opacity="0.06" stroke-width="1"/>
    </pattern>
  </defs>
  <rect width="1600" height="420" fill="url(#bg)"/>
  <rect width="1600" height="420" fill="url(#grid)"/>
  <circle cx="1260" cy="92" r="130" fill="#06b6d4" opacity="0.16" filter="url(#glow)"/>
  <circle cx="1370" cy="290" r="180" fill="#8b5cf6" opacity="0.14" filter="url(#glow)"/>
  <circle cx="230" cy="320" r="160" fill="#14b8a6" opacity="0.1" filter="url(#glow)"/>
  <rect x="96" y="72" width="1408" height="276" rx="28" fill="#07111f" fill-opacity="0.52" stroke="url(#accent)" stroke-opacity="0.5"/>
  <path d="M138 276 C 390 146, 670 324, 918 182 S 1326 130, 1470 214" fill="none" stroke="url(#accent)" stroke-width="10" stroke-linecap="round" opacity="0.92"/>
  <path d="M138 276 C 390 146, 670 324, 918 182 S 1326 130, 1470 214" fill="none" stroke="#ffffff" stroke-width="2" stroke-linecap="round" opacity="0.35"/>
  <text x="140" y="162" fill="#e2e8f0" font-family="Segoe UI, Arial, sans-serif" font-size="74" font-weight="800" letter-spacing="2">VULNERA-MAP</text>
  <text x="142" y="224" fill="#93c5fd" font-family="Segoe UI, Arial, sans-serif" font-size="30" font-weight="600" letter-spacing="6">ENTERPRISE THREAT DISCOVERY PLATFORM</text>
  <text x="142" y="282" fill="#cbd5e1" font-family="Segoe UI, Arial, sans-serif" font-size="22" font-weight="400">mTLS secured • AST taint analysis • entropy scanning • offline CVE matching</text>
  <g transform="translate(1220 126)">
    <rect x="0" y="0" width="220" height="150" rx="20" fill="#0b1728" stroke="#ffffff" stroke-opacity="0.14"/>
    <rect x="22" y="24" width="176" height="14" rx="7" fill="url(#accent)"/>
    <rect x="22" y="54" width="126" height="10" rx="5" fill="#93c5fd" opacity="0.8"/>
    <rect x="22" y="76" width="154" height="10" rx="5" fill="#cbd5e1" opacity="0.55"/>
    <rect x="22" y="98" width="98" height="10" rx="5" fill="#14b8a6" opacity="0.8"/>
    <circle cx="176" cy="104" r="18" fill="#06b6d4" opacity="0.9"/>
    <path d="M168 104l6 6 12-14" fill="none" stroke="#07111f" stroke-width="4" stroke-linecap="round" stroke-linejoin="round"/>
  </g>
</svg>